# xmcd
#
# Track frame offsets: 
#        150
#        13291
#        25512
#        35307
#        46891
#        56592
#        70079
#        82161
#        92969
#        106152
#        118740
#        128146
#        140125
#        148737
#        161691
#        172262
#        181191
#        192123
#        203983
#        212849
#        225293
#        237211
#        246741
#        255870
#        266595
#        277485
#        288871
#        300459
#        316729
#        328917
#        339352
#
# Disc length: 4683 seconds
#
# Revision: 1
# Processed by: cddbd v1.5.2PL0 Copyright (c) Steve Scherf et al.
# Submitted via: ExactAudioCopy v1.0b1
#
DISCID=ce12491f
DTITLE=Ray Peterson - Ray Peterson Sings His Hits
DYEAR=1900
DGENRE=Oldies
TTITLE0=Tell Laura I Love Her (stereo)
TTITLE1=Corrina, Corrina (stereo)
TTITLE2=I Could Have Loved You So Well (stereo)
TTITLE3=The Wonder Of You (mono)
TTITLE4=Be My Girl (stereo)
TTITLE5=I'm Not Jimmy (stereo)
TTITLE6=Shirley Purley (mono)
TTITLE7=Why Don't You Write Me (mono)
TTITLE8=My Blue Angel (stereo)
TTITLE9=Give Us Your Blessing (stereo)
TTITLE10=Till Then (mono)
TTITLE11=Fever (stereo)
TTITLE12=You Thrill Me (stereo)
TTITLE13=If Only Tomorrow (mono)
TTITLE14=Come What May (stereo)
TTITLE15=I'm Gone (mono)
TTITLE16=Deep Are The Roots (mono)
TTITLE17=A Love To Remember (mono)
TTITLE18=You Didn't Care (stereo)
TTITLE19=Missing You (stereo)
TTITLE20=Where Are You (mono)
TTITLE21=Patricia (mono)
TTITLE22=Doggone It (mono)
TTITLE23=Is It Wrong (stereo)
TTITLE24=Promises You Made Are Broken (stereo)
TTITLE25=You Know Me Much Too Well (mono)
TTITLE26=Suddenly (mono)
TTITLE27=Without Love (There Is Nothing) (mono)
TTITLE28=I Forgot What It Was Like (stereo)
TTITLE29=Sweet Little Kathy (stereo)
TTITLE30=Goodnight My Love (stereo)
EXTD=4 or 5 good songs here
EXTT0=
EXTT1=
EXTT2=
EXTT3=
EXTT4=
EXTT5=
EXTT6=
EXTT7=
EXTT8=
EXTT9=
EXTT10=
EXTT11=
EXTT12=
EXTT13=
EXTT14=
EXTT15=
EXTT16=
EXTT17=
EXTT18=
EXTT19=
EXTT20=
EXTT21=
EXTT22=
EXTT23=
EXTT24=
EXTT25=
EXTT26=
EXTT27=
EXTT28=
EXTT29=
EXTT30=
PLAYORDER=
